<svg width="123" height="122" viewBox="0 0 123 122" fill="none" xmlns="http://www.w3.org/2000/svg">
<circle cx="61.4409" cy="60.7821" r="60.5718" fill="#311F09"/>
<path fill-rule="evenodd" clip-rule="evenodd" d="M79.7691 44.1108C80.6051 41.4507 78.1037 38.9493 75.4436 39.7853L40.1172 50.8879C37.2179 51.7991 36.828 55.7425 39.4928 57.2038L50.1667 63.0573C51.5111 63.7945 53.1807 63.556 54.2649 62.4719L57.7823 58.9544C58.5611 58.1756 59.8237 58.1756 60.6025 58.9544C61.3813 59.7332 61.3813 60.9958 60.6025 61.7746L57.0843 65.2927C56.0002 66.3769 55.7616 68.0466 56.4989 69.3909L62.3505 80.0616C63.8119 82.7264 67.7553 82.3365 68.6665 79.4372L79.7691 44.1108Z" fill="white"/>
</svg>
